<?xml version="1.0" encoding="utf-8"?>
<!-- Generator: Adobe Illustrator 19.0.0, SVG Export Plug-In . SVG Version: 6.00 Build 0)  -->
<svg version="1.1" xmlns="http://www.w3.org/2000/svg" xmlns:xlink="http://www.w3.org/1999/xlink" x="0px" y="0px"
	 viewBox="-801 292.4 650 400" style="enable-background:new -801 292.4 650 400;" xml:space="preserve">
<style type="text/css">
	.st0{fill:#424242;}
	.st1{fill:#383838;}
</style>
<g id="Слой_2">
	<rect x="-801" y="292.4" class="st0" width="650" height="400"/>
</g>
<g id="Capa_1">
	<g>
		<path class="st1" d="M-388.5,421.1h-175.1c-1.6,0-2.9,1.3-2.9,2.9v136.9c0,1.6,1.3,2.9,2.9,2.9h175.1c1.6,0,2.9-1.3,2.9-2.9V424
			C-385.6,422.4-386.9,421.1-388.5,421.1z M-402.8,540.9l-39.4-40.8c-0.4-0.4-1.1-0.5-1.6-0.1l-27.3,24l-34.9-43
			c-0.2-0.3-0.6-0.4-0.9-0.4c-0.4,0-0.7,0.2-0.9,0.5l-41.3,55.4v-98.2h146.4V540.9L-402.8,540.9z"/>
		<path class="st1" d="M-446.1,479.7c7.8,0,14.1-6.3,14.1-14.1c0-7.8-6.3-14.1-14.1-14.1c-7.8,0-14.1,6.3-14.1,14.1
			C-460.1,473.4-453.8,479.7-446.1,479.7z"/>
	</g>
</g>
</svg>
